<svg width="31" height="31" viewBox="0 0 31 31" fill="none" xmlns="http://www.w3.org/2000/svg">
<g clip-path="url(#clip0_1_226)">
<path d="M30.3542 10.3333C30.2747 10.3333 30.1946 10.3191 30.1191 10.2888L15.5 4.56862L0.880271 10.2894C0.681354 10.3669 0.45725 10.3411 0.280937 10.221C0.105271 10.1002 0 9.90063 0 9.6875V6.45833C0 6.19225 0.16275 5.95394 0.41075 5.85706L15.2649 0.0445625C15.416 -0.0148542 15.584 -0.0148542 15.7357 0.0445625L30.5899 5.85706C30.8372 5.95394 31 6.19225 31 6.45833V9.6875C31 9.90127 30.8947 10.1008 30.7184 10.221C30.6093 10.2952 30.482 10.3333 30.3542 10.3333ZM1.29167 6.89944V8.74265L15.2643 3.27438C15.4148 3.21431 15.5833 3.21431 15.7351 3.27438L29.7083 8.74135V6.89944L15.5 1.33946L1.29167 6.89944Z" fill="#8F8F8F"/>
<path d="M12.9167 31H2.58333C2.22683 31 1.9375 30.7113 1.9375 30.3542V8.93187C1.9375 8.66578 2.10025 8.42747 2.34825 8.3306L12.6816 4.28768C12.8805 4.20953 13.1046 4.23537 13.2809 4.35549C13.4572 4.47562 13.5625 4.67518 13.5625 4.88895V30.3542C13.5625 30.7113 13.2732 31 12.9167 31ZM3.22917 29.7083H12.2708V5.8351L3.22917 9.37297V29.7083ZM28.4167 31C28.0602 31 27.7708 30.7113 27.7708 30.3542V9.04166C27.7708 8.68516 28.0602 8.39582 28.4167 8.39582C28.7732 8.39582 29.0625 8.68516 29.0625 9.04166V30.3542C29.0625 30.7113 28.7732 31 28.4167 31Z" fill="#8F8F8F"/>
<path d="M28.4167 25.8333H12.9167C12.5602 25.8333 12.2708 25.5446 12.2708 25.1875V18.0833C12.2708 17.7262 12.5602 17.4375 12.9167 17.4375H28.4167C28.7732 17.4375 29.0625 17.7262 29.0625 18.0833V25.1875C29.0625 25.5446 28.7732 25.8333 28.4167 25.8333ZM13.5625 24.5416H27.7708V18.7291H13.5625V24.5416ZM9.68751 15.5H5.81251C5.45601 15.5 5.16667 15.2106 5.16667 14.8541V10.9791C5.16667 10.6226 5.45601 10.3333 5.81251 10.3333H9.68751C10.044 10.3333 10.3333 10.6226 10.3333 10.9791V14.8541C10.3333 15.2106 10.044 15.5 9.68751 15.5ZM6.45834 14.2083H9.04167V11.625H6.45834V14.2083ZM9.68751 31H5.81251C5.45601 31 5.16667 30.7113 5.16667 30.3541V20.6666C5.16667 20.3095 5.45601 20.0208 5.81251 20.0208H9.68751C10.044 20.0208 10.3333 20.3095 10.3333 20.6666V30.3541C10.3333 30.7113 10.044 31 9.68751 31ZM6.45834 29.7083H9.04167V21.3125H6.45834V29.7083Z" fill="#8F8F8F"/>
<path d="M12.9167 18.7292H2.58333C2.22683 18.7292 1.9375 18.4405 1.9375 18.0833C1.9375 17.7262 2.22683 17.4375 2.58333 17.4375H12.9167C13.2732 17.4375 13.5625 17.7262 13.5625 18.0833C13.5625 18.4405 13.2732 18.7292 12.9167 18.7292ZM20.6667 25.8333C20.3102 25.8333 20.0208 25.5446 20.0208 25.1875V18.0833C20.0208 17.7262 20.3102 17.4375 20.6667 17.4375C21.0232 17.4375 21.3125 17.7262 21.3125 18.0833V25.1875C21.3125 25.5446 21.0232 25.8333 20.6667 25.8333ZM23.25 25.8333C22.8935 25.8333 22.6042 25.5446 22.6042 25.1875V18.0833C22.6042 17.7262 22.8935 17.4375 23.25 17.4375C23.6065 17.4375 23.8958 17.7262 23.8958 18.0833V25.1875C23.8958 25.5446 23.6065 25.8333 23.25 25.8333ZM18.0833 25.8333C17.7268 25.8333 17.4375 25.5446 17.4375 25.1875V18.0833C17.4375 17.7262 17.7268 17.4375 18.0833 17.4375C18.4398 17.4375 18.7292 17.7262 18.7292 18.0833V25.1875C18.7292 25.5446 18.4398 25.8333 18.0833 25.8333ZM15.5 25.8333C15.1435 25.8333 14.8542 25.5446 14.8542 25.1875V18.0833C14.8542 17.7262 15.1435 17.4375 15.5 17.4375C15.8565 17.4375 16.1458 17.7262 16.1458 18.0833V25.1875C16.1458 25.5446 15.8565 25.8333 15.5 25.8333ZM25.8333 25.8333C25.4768 25.8333 25.1875 25.5446 25.1875 25.1875V18.0833C25.1875 17.7262 25.4768 17.4375 25.8333 17.4375C26.1898 17.4375 26.4792 17.7262 26.4792 18.0833V25.1875C26.4792 25.5446 26.1898 25.8333 25.8333 25.8333Z" fill="#8F8F8F"/>
</g>
<defs>
<clipPath id="clip0_1_226">
<rect width="31" height="31" fill="white"/>
</clipPath>
</defs>
</svg>
