<svg width="26" height="26" viewBox="0 0 26 26" fill="none" xmlns="http://www.w3.org/2000/svg">
<path d="M16.77 1.36842C14.56 -0.45614 11.31 -0.45614 9.1 1.36842C3.38 6.19048 0 13.2281 0 20.5263V22.0902C0 22.8722 0.52 23.3935 1.3 23.3935H2.6V24.6967C2.6 25.4787 3.12 26 3.9 26C4.68 26 5.2 25.4787 5.2 24.6967V23.3935H9.1H16.9H20.8V24.6967C20.8 25.4787 21.32 26 22.1 26C22.88 26 23.4 25.4787 23.4 24.6967V23.3935H24.7C25.48 23.3935 26 22.8722 26 22.0902V20.5263C26 13.2281 22.62 6.19048 16.77 1.36842ZM10.4 20.787V14.2707H15.6V20.787H10.4ZM23.4 20.787H18.2V14.2707C18.2 12.8371 17.03 11.6642 15.6 11.6642H10.4C8.97 11.6642 7.8 12.8371 7.8 14.2707V20.787H2.6V20.5263C2.6 14.01 5.59 7.62406 10.79 3.32331C12.09 2.2807 13.91 2.2807 15.08 3.32331C20.28 7.62406 23.27 14.01 23.27 20.5263V20.787H23.4Z" fill="#8F8F8F"/>
</svg>
