<svg width="15" height="15" viewBox="0 0 15 15" fill="none" xmlns="http://www.w3.org/2000/svg">
<path d="M14.9884 6.00644C15.0634 5.6134 14.7636 5.14175 14.3889 5.14175L10.1172 4.51288L8.1687 0.425236C8.09376 0.268019 8.01882 0.18941 7.86893 0.110802C7.49422 -0.125024 7.04457 0.0321934 6.81974 0.425236L4.94619 4.51288L0.67448 5.14175C0.449653 5.14175 0.299769 5.22035 0.224827 5.37757C-0.0749422 5.69201 -0.0749422 6.16366 0.224827 6.47809L3.29746 9.62243L2.54803 14.1031C2.54803 14.2603 2.54803 14.4175 2.62298 14.5748C2.8478 14.9678 3.29746 15.125 3.67217 14.8892L7.49422 12.7668L11.3163 14.8892C11.3912 14.9678 11.5411 14.9678 11.691 14.9678C11.7659 14.9678 11.7659 14.9678 11.8409 14.9678C12.2156 14.8892 12.5153 14.4962 12.4404 14.0245L11.691 9.54382L14.7636 6.39948C14.9135 6.32087 14.9884 6.16366 14.9884 6.00644Z" fill="#FEB700"/>
</svg>
