<svg width="31" height="27" viewBox="0 0 31 27" fill="none" xmlns="http://www.w3.org/2000/svg">
<path d="M30.9952 10.6135C30.9952 10.3911 30.9428 10.1704 30.8299 9.97287L26.9859 3.28393C26.199 1.91792 24.7634 1.06977 23.2373 1.06977H10.7308C10.7069 1.06977 10.6878 1.08305 10.6656 1.08305C9.11241 0.480546 7.29692 0.820802 6.05056 2.12041L1.28133 7.09977C0.454667 7.96286 0 9.10812 0 10.3281V23.8902C0 25.4919 1.24795 26.7948 2.78205 26.7948H28.2179C29.7441 26.7948 31 25.4836 31 23.8902V10.6119H30.9968L30.9952 10.6135ZM7.15226 24.3068V18.9125C7.15226 17.7689 8.0441 16.8377 9.13944 16.8377C10.2348 16.8377 11.1266 17.7689 11.1266 18.9125V24.3068H7.15226ZM15.8958 10.6135V24.3068H13.5112V18.9125C13.5112 16.3946 11.5511 14.3481 9.13944 14.3481C6.7278 14.3481 4.76764 16.3946 4.76764 18.9125V24.3068H2.78046C2.56108 24.3068 2.38303 24.1209 2.38303 23.8918V10.3297C2.38303 9.77535 2.58969 9.25418 2.96487 8.86247L7.7341 3.88311C8.12041 3.47978 8.62913 3.27729 9.13944 3.27729C9.64974 3.27729 10.1585 3.47978 10.5448 3.88311L15.314 8.86247C15.6892 9.25418 15.8958 9.77535 15.8958 10.3297V10.6135ZM16.9991 7.10143L13.6066 3.55945H23.2357C23.9304 3.55945 24.5838 3.94618 24.9399 4.56694L27.6997 9.3687H18.1771C18.0023 8.51723 17.6032 7.73215 16.9991 7.10143ZM28.6138 23.8918C28.6138 24.1242 28.4389 24.3068 28.2164 24.3068H18.2805V11.8584H28.6138V23.8918ZM20.6651 15.5929C20.6651 14.9057 21.1992 14.3481 21.8574 14.3481H25.0369C25.695 14.3481 26.2292 14.9057 26.2292 15.5929C26.2292 16.2801 25.695 16.8377 25.0369 16.8377H21.8574C21.1992 16.8377 20.6651 16.2801 20.6651 15.5929ZM20.6651 20.5723C20.6651 19.8851 21.1992 19.3274 21.8574 19.3274H25.0369C25.695 19.3274 26.2292 19.8851 26.2292 20.5723C26.2292 21.2594 25.695 21.8171 25.0369 21.8171H21.8574C21.1992 21.8171 20.6651 21.2594 20.6651 20.5723Z" fill="#8F8F8F"/>
</svg>
