<svg width="28" height="28" viewBox="0 0 28 28" fill="none" xmlns="http://www.w3.org/2000/svg">
<path d="M26.6 5.6C26.2287 5.6 25.8726 5.7475 25.61 6.01005C25.3475 6.2726 25.2 6.6287 25.2 7V21C25.2 22.1139 24.7575 23.1822 23.9698 23.9698C23.1822 24.7575 22.1139 25.2 21 25.2H7C6.6287 25.2 6.2726 25.3475 6.01005 25.61C5.7475 25.8726 5.6 26.2287 5.6 26.6C5.6 26.9713 5.7475 27.3274 6.01005 27.59C6.2726 27.8525 6.6287 28 7 28H21C22.8565 28 24.637 27.2625 25.9497 25.9497C27.2625 24.637 28 22.8565 28 21V7C28 6.6287 27.8525 6.2726 27.59 6.01005C27.3274 5.7475 26.9713 5.6 26.6 5.6ZM22.4 18.2V4.2C22.4 3.08609 21.9575 2.0178 21.1698 1.23015C20.3822 0.442499 19.3139 0 18.2 0H4.2C3.08609 0 2.0178 0.442499 1.23015 1.23015C0.442499 2.0178 0 3.08609 0 4.2V18.2C0 19.3139 0.442499 20.3822 1.23015 21.1698C2.0178 21.9575 3.08609 22.4 4.2 22.4H18.2C19.3139 22.4 20.3822 21.9575 21.1698 21.1698C21.9575 20.3822 22.4 19.3139 22.4 18.2ZM11.2 2.8H14V9.604L13.496 9.184C13.2444 8.97447 12.9274 8.85972 12.6 8.85972C12.2726 8.85972 11.9556 8.97447 11.704 9.184L11.2 9.604V2.8ZM2.8 18.2V4.2C2.8 3.8287 2.9475 3.4726 3.21005 3.21005C3.4726 2.9475 3.8287 2.8 4.2 2.8H8.4V12.6C8.39998 12.8676 8.47668 13.1297 8.621 13.355C8.76532 13.5804 8.97121 13.7597 9.2143 13.8717C9.45738 13.9837 9.72746 14.0236 9.99255 13.9868C10.2576 13.95 10.5066 13.838 10.71 13.664L12.6 12.082L14.49 13.664C14.7436 13.8809 15.0663 14 15.4 14C15.6025 13.9986 15.8027 13.9557 15.988 13.874C16.231 13.7615 16.4367 13.5817 16.5806 13.3559C16.7245 13.1301 16.8007 12.8678 16.8 12.6V2.8H18.2C18.5713 2.8 18.9274 2.9475 19.1899 3.21005C19.4525 3.4726 19.6 3.8287 19.6 4.2V18.2C19.6 18.5713 19.4525 18.9274 19.1899 19.1899C18.9274 19.4525 18.5713 19.6 18.2 19.6H4.2C3.8287 19.6 3.4726 19.4525 3.21005 19.1899C2.9475 18.9274 2.8 18.5713 2.8 18.2Z" fill="#8F8F8F"/>
</svg>
