<svg width="26" height="31" viewBox="0 0 26 31" fill="none" xmlns="http://www.w3.org/2000/svg">
<path d="M16 3.875H18V5.8125H16V3.875ZM20 3.875H22V5.8125H20V3.875ZM16 7.75H18V9.6875H16V7.75ZM20 7.75H22V9.6875H20V7.75ZM16 11.625H18V13.5625H16V11.625ZM20 11.625H22V13.5625H20V11.625ZM16 15.5H18V17.4375H16V15.5ZM20 15.5H22V17.4375H20V15.5ZM16 19.375H18V21.3125H16V19.375ZM20 19.375H22V21.3125H20V19.375ZM24 0H14C13.4696 0 12.9609 0.204129 12.5858 0.567481C12.2107 0.930832 12 1.42364 12 1.9375V7.75H2C1.46957 7.75 0.960859 7.95413 0.585786 8.31748C0.210714 8.68083 0 9.17364 0 9.6875V29.0625C0 29.5764 0.210714 30.0692 0.585786 30.4325C0.960859 30.7959 1.46957 31 2 31H24C24.5304 31 25.0391 30.7959 25.4142 30.4325C25.7893 30.0692 26 29.5764 26 29.0625V1.9375C26 1.42364 25.7893 0.930832 25.4142 0.567481C25.0391 0.204129 24.5304 0 24 0ZM8 29.0625H6V25.1875H8V29.0625ZM10 29.0625V23.25H4V29.0625H2V9.6875H12V29.0625H10ZM20 29.0625H18V25.1875H20V29.0625ZM24 29.0625H22V23.25H16V29.0625H14V1.9375H24V29.0625ZM4 11.625H6V13.5625H4V11.625ZM8 11.625H10V13.5625H8V11.625ZM4 15.5H6V17.4375H4V15.5ZM8 15.5H10V17.4375H8V15.5ZM4 19.375H6V21.3125H4V19.375ZM8 19.375H10V21.3125H8V19.375Z" fill="#8F8F8F"/>
</svg>
