<svg width="28" height="30" viewBox="0 0 28 30" fill="none" xmlns="http://www.w3.org/2000/svg">
<path d="M17.2719 26.646V19.7582C17.2719 19.4538 17.157 19.1618 16.9524 18.9465C16.7478 18.7312 16.4703 18.6103 16.181 18.6103H11.8174C11.5281 18.6103 11.2506 18.7312 11.046 18.9465C10.8414 19.1618 10.7265 19.4538 10.7265 19.7582V26.646C10.7265 26.9504 10.6116 27.2423 10.407 27.4576C10.2024 27.6729 9.925 27.7938 9.6357 27.7939L3.09105 27.7948C2.94777 27.7948 2.8059 27.7651 2.67353 27.7075C2.54116 27.6498 2.42088 27.5652 2.31957 27.4586C2.21825 27.352 2.13789 27.2255 2.08305 27.0862C2.02822 26.9469 2 26.7976 2 26.6469V13.3796C2 13.2196 2.03176 13.0615 2.09324 12.9152C2.15472 12.7689 2.24456 12.6378 2.35702 12.5302L13.2654 2.0934C13.4662 1.90127 13.7278 1.79481 13.9992 1.7948C14.2706 1.79479 14.5323 1.90124 14.7331 2.09335L25.6429 12.5302C25.7554 12.6378 25.8453 12.769 25.9067 12.9152C25.9682 13.0615 26 13.2197 26 13.3796V26.6469C26 26.7976 25.9718 26.9469 25.9169 27.0862C25.8621 27.2255 25.7817 27.352 25.6804 27.4586C25.5791 27.5652 25.4588 27.6498 25.3265 27.7075C25.1941 27.7651 25.0522 27.7948 24.909 27.7948L18.3627 27.7939C18.0734 27.7939 17.796 27.6729 17.5914 27.4576C17.3868 27.2423 17.2719 26.9504 17.2719 26.646Z" stroke="#8F8F8F" stroke-width="3" stroke-linecap="round" stroke-linejoin="round"/>
</svg>
