<svg width="28" height="27" viewBox="0 0 28 27" fill="none" xmlns="http://www.w3.org/2000/svg">
<path d="M26.7273 0.7948H1.27273C0.935179 0.7948 0.611456 0.931764 0.372773 1.17556C0.13409 1.41936 0 1.75002 0 2.0948V7.2948C0.00221392 8.09943 0.248027 8.88366 0.70374 9.53998C1.15945 10.1963 1.80276 10.6926 2.54545 10.9608V25.4948C2.54545 25.8396 2.67954 26.1702 2.91823 26.414C3.15691 26.6578 3.48063 26.7948 3.81818 26.7948H24.1818C24.5194 26.7948 24.8431 26.6578 25.0818 26.414C25.3205 26.1702 25.4545 25.8396 25.4545 25.4948V10.9608C26.1972 10.6926 26.8405 10.1963 27.2963 9.53998C27.752 8.88366 27.9978 8.09943 28 7.2948V2.0948C28 1.75002 27.8659 1.41936 27.6272 1.17556C27.3885 0.931764 27.0648 0.7948 26.7273 0.7948ZM17.8182 3.3948H20.3636V7.2948C20.3636 7.63958 20.2295 7.97024 19.9909 8.21404C19.7522 8.45784 19.4285 8.5948 19.0909 8.5948C18.7534 8.5948 18.4296 8.45784 18.191 8.21404C17.9523 7.97024 17.8182 7.63958 17.8182 7.2948V3.3948ZM12.7273 3.3948H15.2727V7.2948C15.2727 7.63958 15.1386 7.97024 14.9 8.21404C14.6613 8.45784 14.3375 8.5948 14 8.5948C13.6625 8.5948 13.3387 8.45784 13.1 8.21404C12.8614 7.97024 12.7273 7.63958 12.7273 7.2948V3.3948ZM7.63636 3.3948H10.1818V7.2948C10.1818 7.63958 10.0477 7.97024 9.80904 8.21404C9.57036 8.45784 9.24664 8.5948 8.90909 8.5948C8.57154 8.5948 8.24782 8.45784 8.00914 8.21404C7.77045 7.97024 7.63636 7.63958 7.63636 7.2948V3.3948ZM3.81818 8.5948C3.48063 8.5948 3.15691 8.45784 2.91823 8.21404C2.67954 7.97024 2.54545 7.63958 2.54545 7.2948V3.3948H5.09091V7.2948C5.09091 7.63958 4.95682 7.97024 4.71814 8.21404C4.47945 8.45784 4.15573 8.5948 3.81818 8.5948ZM16.5455 24.1948H11.4545V18.9948C11.4545 18.3052 11.7227 17.6439 12.2001 17.1563C12.6775 16.6687 13.3249 16.3948 14 16.3948C14.6751 16.3948 15.3225 16.6687 15.7999 17.1563C16.2773 17.6439 16.5455 18.3052 16.5455 18.9948V24.1948ZM22.9091 24.1948H19.0909V18.9948C19.0909 17.6157 18.5545 16.293 17.5998 15.3178C16.6451 14.3427 15.3502 13.7948 14 13.7948C12.6498 13.7948 11.3549 14.3427 10.4002 15.3178C9.44545 16.293 8.90909 17.6157 8.90909 18.9948V24.1948H5.09091V10.9608C5.55873 10.7834 5.99027 10.519 6.36364 10.1808C7.06366 10.8203 7.9699 11.1739 8.90909 11.1739C9.84828 11.1739 10.7545 10.8203 11.4545 10.1808C12.1546 10.8203 13.0608 11.1739 14 11.1739C14.9392 11.1739 15.8454 10.8203 16.5455 10.1808C17.2455 10.8203 18.1517 11.1739 19.0909 11.1739C20.0301 11.1739 20.9363 10.8203 21.6364 10.1808C22.0097 10.519 22.4413 10.7834 22.9091 10.9608V24.1948ZM25.4545 7.2948C25.4545 7.63958 25.3205 7.97024 25.0818 8.21404C24.8431 8.45784 24.5194 8.5948 24.1818 8.5948C23.8443 8.5948 23.5205 8.45784 23.2819 8.21404C23.0432 7.97024 22.9091 7.63958 22.9091 7.2948V3.3948H25.4545V7.2948Z" fill="#8F8F8F"/>
</svg>
